<?xml version="1.0" encoding="UTF-8" standalone="no"?>
<!-- (c) ammap.com | SVG map of Continents - Low -->

<svg
   xmlns:amcharts="http://amcharts.com/ammap"
   xmlns:dc="http://purl.org/dc/elements/1.1/"
   xmlns:cc="http://creativecommons.org/ns#"
   xmlns:rdf="http://www.w3.org/1999/02/22-rdf-syntax-ns#"
   xmlns:svg="http://www.w3.org/2000/svg"
   xmlns="http://www.w3.org/2000/svg"
   xmlns:sodipodi="http://sodipodi.sourceforge.net/DTD/sodipodi-0.dtd"
   xmlns:inkscape="http://www.inkscape.org/namespaces/inkscape"
   version="1.1"
   id="svg2"
   inkscape:version="0.91 r13725"
   sodipodi:docname="continentsLow.svg">
  <metadata
     id="metadata16">
    <rdf:RDF>
      <cc:Work
         rdf:about="">
        <dc:format>image/svg+xml</dc:format>
        <dc:type
           rdf:resource="http://purl.org/dc/dcmitype/StillImage" />
      </cc:Work>
    </rdf:RDF>
  </metadata>
  <sodipodi:namedview
     pagecolor="#ffffff"
     bordercolor="#666666"
     borderopacity="1"
     objecttolerance="10"
     gridtolerance="10"
     guidetolerance="10"
     inkscape:pageopacity="0"
     inkscape:pageshadow="2"
     inkscape:window-width="1280"
     inkscape:window-height="694"
     id="namedview14"
     showgrid="false"
     inkscape:zoom="0.46669048"
     inkscape:cx="534.84848"
     inkscape:cy="-185.2945"
     inkscape:window-x="355"
     inkscape:window-y="134"
     inkscape:window-maximized="0"
     inkscape:current-layer="svg2" />
  <defs
     id="defs4">
    <style
       type="text/css"
       id="style6">
			.land
			{
				fill: #CCCCCC;
				fill-opacity: 1;
				stroke:white;
				stroke-opacity: 1;
				stroke-width:0.5;
			}
		</style>
    <amcharts:ammap
       projection="mercator"
       leftLongitude="-169.6"
       topLatitude="83.68"
       rightLongitude="190.25"
       bottomLatitude="-55.55" />
    <!-- All areas are listed in the line below. You can use this list in your script. -->
    <!--{id:"southAmerica"},{id:"northAmerica"},{id:"asia"},{id:"europe"},{id:"australia"},{id:"africa"}-->
  </defs>
  <g
     id="g8"
     transform="translate(-779.96021,-302.12744)">
    <path
       id="asia"
       title="Asia"
       class="land"
       d="m 835.21,465.56 -1.16,-1.47 0.43,-1.69 1.45,0.27 0.15,-2.43 -0.26,-1.14 -1.66,-0.24 -0.2,-1.52 -0.93,1.01 -0.56,2.23 0.83,3.56 1.13,1.76 0.78,-0.34 z m -6.16,7.88 1.94,0.51 1.05,-0.93 -0.7,-0.92 -2.84,0.13 0.55,1.21 z m -9.07,-40.55 -0.31,1.76 -0.7,0.79 -0.58,0.76 1.73,1.95 0.88,-0.84 0.88,-1.79 1.01,-0.93 0.27,-2.71 -2.08,2.74 0.45,-1.91 -1.55,0.18 z m -2.98,-2.87 0.43,1.35 -0.2,1.45 0.1,1.32 1.78,-0.85 1.3,-1.2 0.05,-1.19 -1.78,0 -1.68,-0.88 z m -2.95,-2.32 1.2,1.42 0.74,-2.47 -0.97,-1.03 -2.4,-0.1 1.43,2.18 z m 16.3,59.16 -1.96,0.1 -2.41,0.63 -0.33,0.67 -2.77,1.12 -1.21,1.72 -0.25,0.96 0.34,0.34 2.4,-0.62 1.83,-2.11 2.35,-0.81 2.92,-1.23 1.03,-0.76 -1.06,-0.35 -0.88,0.34 z M 815,398.14 l 1.69,-4.88 0.49,-1.85 -1.28,-0.92 -2.24,2.33 -1.65,3 0.32,2.25 1.48,2.55 1.19,-2.48 z m 12.14,31.11 -0.77,-1.06 -2.69,-0.06 1.71,2.18 0.04,1.08 -1.65,-0.23 0.44,1.72 0.84,0.15 0.12,1.99 1.33,-0.63 -0.69,-1.75 -0.06,-0.95 2.16,0.75 -0.78,-3.19 z m -5.65,9.83 -1.53,1.06 -1.77,0.79 -1.1,2.37 0.46,0.82 2.08,-1.57 1.32,0.11 0.88,-1.17 1.78,1.33 -0.86,1.33 0.79,2.03 3.3,1.63 0.8,-1.31 -0.9,-2.06 1.31,-1.42 1.02,2.86 0.96,-2.57 -0.17,-1.58 -0.29,-1.87 -0.2,-1.04 -0.24,-1.42 -2.27,-1.34 0.17,2.18 -1.98,0.08 -0.46,1.26 -2.13,0.77 -0.97,-1.27 z m 47.16,-101.96 -1.18,2.33 0.48,4.1 -1.76,4.38 -1.59,1.38 -4.11,3.51 -1.87,-1.67 -2.93,6.17 -3,-0.7 -5.58,1.02 -2.06,2.33 -2.82,1.75 -1.47,2.11 -2.65,1.03 1.14,2.28 1.77,0.96 -0.69,2.96 1.36,1.27 1.81,-1.37 1.87,-5.61 -2.84,-2.46 3.28,-0.06 3.32,-1.59 4.88,-0.75 0.12,2.52 1.88,1.29 4,-3.84 4.93,-0.21 3.58,-1.6 1.46,-2.42 -0.49,-1.73 1.06,-2.78 -0.05,-3.64 2.59,-3.6 0.08,-2.94 -1.53,-5.11 -2.99,0.69 z m 3.61,-43.87 1.64,4.41 -0.12,5.85 -0.65,3.24 0.32,4.54 -0.31,4.01 0.52,3.4 1.84,-3.13 2.13,2.44 0.08,-2.84 -2.73,-4.23 1.72,-6.11 4.15,1.41 -2.82,-7.68 -1.16,-4.51 0.07,-4.5 -0.97,-4.5 -0.73,-3.15 -1.25,0.67 1.11,2.21 -2.59,2.17 -0.25,6.3 z m -34.27,177.94 -3.46,0.12 -0.67,1.53 1.94,0.1 1.58,-0.18 2.34,0.23 2.37,1.15 -1.02,-2.13 -3.08,-0.82 z m -190.31,-80.02 -5.27,-0.93 -3.06,-0.71 -3.16,-0.41 -1.2,-3.81 -1.34,-0.56 -2.16,0.56 -2.82,1.51 -3.43,-1.03 -2.83,-2.41 -2.7,-0.9 -1.87,-3.01 -2.07,-4.27 -1.51,0.52 -1.78,-1.07 -1.05,1.26 -1.66,-0.15 0.58,1.41 -0.25,0.73 0.9,2.41 1.1,2.73 1.38,0.71 0.48,1.11 1.91,1.31 0.17,1.29 -0.28,1.03 0.36,1.04 0.8,0.87 0.38,1.01 0.42,0.75 -0.19,-2.24 0.76,-1.62 0.76,-0.34 0.85,0.97 0.05,1.81 -0.61,1.81 0.53,1.17 0.5,-0.15 0.11,0.84 2.19,-0.48 2.32,0.08 1.69,0.09 1.92,-2.07 2.1,-1.98 1.77,-1.9 0.81,-1.06 0.35,0.27 -0.26,1.28 -0.37,0.56 0.38,2.44 1.26,2.09 1.56,1.11 2.06,0.4 1.66,0.55 1.27,1.74 0.75,1.01 1.01,0.38 -0.01,0.67 -1.02,1.8 -0.45,0.84 -1.18,0.95 -1.05,2.05 -1.27,-0.16 -0.58,0.71 -0.45,1.5 0.34,1.98 -0.26,0.36 -1.29,-0.01 -1.75,1.1 -0.27,1.43 -0.65,0.62 -1.74,-0.02 -1.1,0.73 0.02,1.18 -1.36,0.81 -1.55,-0.27 -1.87,0.98 -1.3,0.16 -2.03,0.79 -0.54,1.28 -0.07,0.99 -2.79,1.22 -4.48,1.35 -2.51,2.03 -1.23,0.15 -0.84,-0.17 -1.64,1.2 -1.79,0.55 -2.35,0.15 -0.71,0.16 -0.61,0.75 -0.74,0.21 -0.43,0.73 -1.39,-0.06 -0.9,0.38 -1.94,-0.14 -0.73,-1.67 0.08,-1.57 -0.45,-0.85 -0.55,-2.12 -0.81,-1.19 0.56,-0.14 -0.29,-1.32 0.34,-0.56 -0.12,-1.26 -0.36,-1.24 -0.85,-0.88 -0.22,-1.17 -1.44,-1.04 -1.5,-2.46 -0.79,-2.41 -1.94,-2.04 -1.25,-0.48 -1.86,-2.85 -0.32,-2.08 0.12,-1.79 -1.61,-3.36 -1.31,-1.19 -1.52,-0.63 -0.92,-1.76 0.15,-0.69 -0.78,-1.6 -0.82,-0.69 -1.09,-2.32 -1.71,-2.52 -1.43,-2.16 -1.39,0.01 0.43,-1.74 0.13,-1.11 0.34,-1.28 -0.09,-0.46 -1.84,-5.55 0.81,-1.08 -0.19,-0.19 0.74,-1.53 0.57,-2.5 0.4,-0.84 0.08,-0.03 1,-2.73 1.39,-2.38 0.06,-0.12 -0.26,-2.61 0.68,-1.41 0.75,-0.75 0.75,-0.76 0.16,-1.94 0.91,0.68 3.09,-0.97 1.49,0.65 2.31,-0.01 3.22,-1.31 1.52,0.06 3.19,-0.54 1.2,-0.55 3.26,0.46 0.99,0.89 1.34,-0.59 -1.53,-2.83 0.54,-1.09 -0.87,-4.12 1.92,-1.03 0.44,1.37 1.42,1.66 1.92,0.47 1.02,-0.1 3.31,-2.66 1.05,-0.27 0.82,1.07 -0.96,1.78 1.75,1.86 0.69,-0.17 0.89,2.61 2.66,0.73 1.95,1.76 3.98,0.6 4.38,-0.92 0.27,-0.82 0.08,-0.02 -0.52,-2.48 0.41,-3.73 -2.19,-1.22 0.72,-2.48 -1.86,-0.21 0.62,-3.09 2.64,0.91 2.46,-1.18 -2.04,-2.23 -0.8,-2.14 -2.26,0.96 -0.29,2.73 -0.88,-2.42 -0.16,-0.92 0.69,-1.57 -0.54,-1.32 -3.25,-1.3 -1.27,-3.46 -1.55,-0.99 -0.09,-1.28 2.73,0.37 0.11,-2.88 2.38,-0.65 2.45,0.59 0.5,-3.91 -0.5,-2.51 -2.81,0.2 -2.38,-1 -3.25,1.8 -2.62,0.85 -1.42,-0.66 0.28,-2.1 -1.79,-2.76 -2.08,0.12 -2.38,-2.84 1.62,-3.21 -0.82,-0.87 2.24,-4.77 2.88,2.53 0.35,-3.19 5.79,-4.85 4.38,-0.12 6.18,3.1 3.32,1.79 2.98,-1.87 4.44,-0.09 3.59,2.29 0.81,-1.31 3.94,0.19 0.7,-2.11 -4.54,-3.1 0.37,-0.3 -0.3,-0.11 -0.8,-1.88 -1.88,-0.67 -0.09,-2.65 1.13,-2.2 1.33,-1.39 -0.71,-1.75 -1.89,-1.07 -1.84,1.12 -1.9,1.5 -1.81,-2.32 -1.2,-1.83 -1.3,-2.44 3.08,-0.37 2.57,-0.64 1.66,-2.67 -0.31,-2.15 -2.11,-1.76 0.56,-2.42 2.17,-2.73 1.78,-3.54 1.77,-5 1.34,-8.84 1.89,-19.97 5.23,-4.07 4.82,-5.44 3.93,-3.13 3.76,-3.86 2.03,-4.04 -0.92,-7.34 1.6,1.39 1.88,-3.97 -2.85,-4.11 -0.08,-1.68 -3.38,-0.78 0.92,-3.83 -1.5,-6.49 -0.08,-2.74 5.17,-7.99 1.84,-8.42 2.08,-1.88 7.42,2.51 0.58,5.18 -2.66,7.28 1.74,2.78 0.9,5.94 -0.64,11.07 3.09,4.73 -1.2,5.01 -5.49,10.2 3.21,1.02 1.12,-2.51 3.08,-1.82 0.74,-3.55 2.43,-3.49 -1.63,-4.26 1.31,-5.08 -3.07,-0.64 -0.67,-4.42 2.24,-8.28 -3.64,-7.03 5.02,-6.04 -0.65,-6.62 1.4,-0.22 1.47,5.19 -1.11,8.67 3,1.59 -1.28,-6.37 4.69,-3.58 5.82,-0.49 5.18,5.18 -2.49,-7.62 -0.28,-10.28 4.88,-2.02 6.74,0.44 6.08,-1.32 -2.28,-5.38 3.25,-7.02 3.22,-0.3 5.45,-5.51 7.4,-1.51 0.94,-3.15 7.36,-1.08 2.29,2.61 6.29,-6.24 5.15,0.2 0.77,-5.24 2.68,-5.33 6.62,-5.31 4.81,4.21 -3.82,3.13 6.35,1.92 0.76,6.03 2.56,-2.94 8.2,0.16 6.32,5.84 2.25,4.35 -0.7,5.85 -3.1,3.24 -7.37,5.92 -2.11,3.08 3.48,1.43 4.15,2.55 2.52,-1.91 1.43,6.39 1.23,-2.56 4.48,-1.57 9,1.65 0.68,4.58 11.72,1.43 0.16,-7.47 5.95,1.74 4.48,-0.05 4.53,5.14 1.29,6.04 -1.66,3.84 3.52,6.98 4.41,3.49 2.71,-9.18 4.5,4 4.78,-2.38 5.43,2.72 2.07,-2.47 4.59,1.24 -2.02,-8.4 3.7,-4.07 25.32,6.06 2.39,5.35 7.34,6.65 11.32,-1.62 5.58,1.41 2.33,3.5 -0.34,6.02 3.45,2.29 3.75,-1.64 4.97,-0.21 5.29,1.57 5.31,-0.89 4.88,6.99 3.47,-2.48 -2.27,-5.07 1.25,-3.62 8.95,2.29 5.83,-0.49 8.06,3.84 3.92,3.44 6.87,5.86 7.35,7.34 -0.24,4.44 1.89,1.74 -0.65,-5.15 7.61,1.07 5.67,6.59 -2.78,2.97 -4.6,0.7 -0.07,6.46 -1.12,1.35 -2.63,-0.19 -2.14,-2.26 -3.73,-1.92 -0.63,-2.89 -2.85,-1.1 -3.19,0.87 -1.52,-2.37 0.61,-2.55 -3.36,1.64 1.26,3.19 -1.59,2.83 -0.02,0.04 -3.6,2.89 -3.63,-0.48 2.53,3.44 1.67,5.2 1.29,1.67 0.33,2.53 -0.72,1.6 -5.23,-1.32 -7.84,4.51 -2.49,0.69 -4.29,4.1 -4.07,3.5 -1.03,2.55 -4.01,-3.9 -7.31,4.42 -1.28,-2.08 -2.7,2.39 -3.75,-0.76 -0.9,3.63 -3.36,5.22 0.1,2.14 3.19,1.17 -0.38,7.46 -2.6,0.19 -1.2,4.15 1.17,2.1 -4.9,2.47 -0.97,5.4 -4.18,1.14 -0.84,4.66 -4.04,4.18 -1.04,-3.08 -1.2,-6.69 -1.56,-10.65 1.35,-6.95 2.37,-3.07 0.15,-2.44 4.36,-1.18 5.01,-6.78 4.83,-5.73 5.04,-4.57 2.25,-8.37 -3.41,0.51 -1.68,4.92 -7.11,6.36 -2.3,-7.14 -7.24,2 -7.02,9.56 2.32,3.38 -6.26,1.42 -4.33,0.56 0.2,-3.95 -4.36,-0.84 -3.47,2.7 -8.57,-0.94 -9.22,1.62 -9.08,10.33 -10.75,11.78 4.42,0.61 1.38,3 2.72,1.05 1.79,-2.38 3.08,0.31 4.05,5.19 0.09,3.92 -2.19,4.51 -0.24,5.27 -1.26,6.85 -4.23,6.01 -0.94,2.82 -3.81,4.66 -3.78,4.53 -1.81,2.28 -3.74,2.25 -1.77,0.05 -1.76,-1.86 -3.76,2.79 -0.44,1.26 -1.07,-0.23 -1.22,1.28 -0.84,1.27 0.11,2.67 -1.45,0.82 -0.5,0.65 -1.06,1.08 -1.87,0.6 -1.22,0.98 -0.09,1.57 -0.33,0.4 1.12,0.58 1.59,1.57 2.42,4.18 0.69,2.27 0.02,3.99 -1.06,1.88 -2.54,0.65 -2.24,1.41 -2.53,0.29 -0.31,-1.85 0.52,-2.57 -1.24,-3.6 2.08,-0.59 -1.92,-3 -1.36,-0.67 -0.34,0.66 -0.82,0.29 -0.1,-0.67 -0.73,-0.32 -0.75,-0.57 0.77,-1.57 0.66,-0.42 -0.25,-0.65 0.71,-1.94 -0.18,-0.59 -1.64,-0.39 -1.32,-0.98 -3.92,1.06 -2.06,1.69 -3.02,0.98 1.49,-1.67 -0.59,-1.41 2.22,-2.45 -1.48,-1.93 -2.44,1.3 -3.17,2.54 -1.73,2.34 -2.75,0.17 -1.43,1.68 1.48,2.41 2.29,0.58 0.09,1.58 2.22,1.02 3.14,-2.51 2.49,1.37 1.81,0.09 0.46,1.84 -3.97,0.97 -1.31,1.87 -2.73,1.73 -1.44,2.39 3.02,1.86 1.1,3.31 1.71,3.05 1.9,2.53 -0.05,2.43 -1.76,0.89 0.67,1.73 1.65,1 -0.43,2.61 -0.71,2.52 -1.57,0.28 -2.05,3.41 -2.27,4.09 -2.6,3.68 -3.86,2.82 -3.9,2.55 -3.16,0.35 -1.71,1.34 -0.97,-0.98 -1.59,1.5 -3.92,1.5 -2.97,0.46 -0.96,3.15 -1.55,0.17 -0.74,-2.16 0.66,-1.16 -3.76,-0.96 -1.33,0.49 -3.74,2.56 -2.34,2.81 -0.62,2.05 2.14,3.1 2.62,3.81 2.54,1.79 1.7,2.32 1.28,5.32 -0.38,5.02 -2.34,1.87 -3.21,1.83 -2.29,2.36 -3.5,2.63 -1.02,-1.81 0.79,-1.91 -2.08,-1.61 -2.35,-0.41 -1.14,-1.48 -1.42,-2.94 -2.52,-1.31 -2.4,0.05 0.41,-2.25 -2.47,0.02 -0.22,3.14 -1.51,4.15 -0.91,2.5 0.19,2.04 1.83,0.09 1.14,2.57 0.5,2.43 1.56,1.61 1.7,0.33 1.45,1.46 0.64,0.26 1.66,1.69 1.18,1.87 0.16,1.88 -0.3,1.27 0.27,0.96 0.21,1.65 0.99,0.77 1.1,2.46 -0.05,0.94 -1.99,0.19 -2.65,-2.06 -3.32,-2.21 -0.33,-1.42 -1.62,-1.87 -0.39,-2.31 -1.01,-1.52 0.31,-2.04 -0.62,-1.19 -1.11,-1.08 -0.48,-1.39 -1.49,-1.59 -1.36,-1.33 -0.46,1.65 -0.53,-1.56 0.31,-1.76 0.83,-2.71 -0.27,-2.1 0.86,-2.17 -0.94,-1.68 0.23,-3.11 -1.14,-1.48 -0.91,-3.44 -0.51,-3.65 -1.21,-2.41 -1.85,1.46 -3.19,2.07 -1.57,-0.26 -1.74,-0.68 0.97,-3.6 -0.58,-2.74 -2.2,-3.39 0.34,-1.07 -1.64,-0.38 -1.99,-2.42 -0.8,-1.56 -0.16,-1.53 -0.53,-1.45 -1.17,-1.76 -2.58,-0.12 0.25,1.25 -0.88,1.67 -1.19,-0.61 -0.41,0.55 -0.79,-0.33 -1.08,-0.27 -0.4,1.1 -1.91,-0.04 -3.46,0.62 0.16,2.25 -1.5,1.76 -4.04,1.99 -3.14,3.47 -2.11,1.85 -2.79,1.91 0,1.34 -1.4,0.72 -2.53,1.04 -1.31,0.15 -0.84,2.21 0.58,3.74 0.15,2.38 -1.19,2.71 -0.01,4.83 -1.45,0.14 -1.28,2.16 0.85,0.93 -2.56,0.8 -0.94,1.92 -1.13,0.81 -2.65,-2.63 -1.3,-3.96 -1.08,-2.86 -0.98,-1.35 -1.49,-2.74 -0.7,-3.58 -0.48,-1.8 -2.55,-3.97 -1.16,-5.65 -0.84,-3.76 0.01,-3.59 -0.54,-2.79 -4.08,1.79 -1.98,-0.36 -3.66,-3.63 1.35,-1.09 -0.83,-1.19 -3.29,-2.58 -2.05,-0.77 -0.84,-2.2 -2.17,-2.34 -5.17,0.58 -4.56,0.06 -3.95,0.43 z m 233.05,-64.55 -1.97,-0.83 -2.15,-1.31 -3.29,-4.12 -0.83,3.09 -0.82,5.38 -3,0.21 -1.39,2.94 0.39,3.74 3.12,-0.06 1.53,-4.12 4.41,2.58 2.46,-3.76 4.16,-1.05 -0.62,-4.35 -2,1.66 z m -10.13,144.01 -3.01,-0.53 -2.08,-1 -2.4,-0.97 -2.49,0 -3.22,1.68 -2.34,2.96 -2.9,-1.67 -0.78,-4.51 -0.44,-1.04 -4.5,-1.14 -1.44,0.91 -3.78,0.67 1.19,1.38 2.5,0.51 1.11,1.66 4.1,0.01 0.24,0.74 -2,-0.05 -3.02,1 2.14,1.37 0.01,1.21 0.64,1.02 1.08,-0.25 0.83,-1.36 4.21,2.58 2.31,0.23 5.44,2.37 1.35,2.35 0.73,3.05 -1.77,0.78 -1.19,2.29 3.55,-0.09 0.69,-0.8 2.85,0.57 2.5,2.31 -0.05,-9.16 -0.06,-9.08 z m -59.11,-50.69 0.42,1.26 1.38,1.65 0.36,-1.04 0.84,0.67 -0.88,0.73 -0.14,1.19 1.4,0.63 2.55,-0.42 1.79,1.72 0.72,-1.05 1.04,1.5 2.18,1.4 0.29,-1.32 -0.92,-0.69 0.27,-1.56 -3.5,-1.59 -1.24,0.34 -1.49,-0.32 -0.63,-2.29 0.44,-2.33 1.65,-0.96 0.74,-2.42 -0.96,-2.09 0.46,-1.22 -0.25,-0.75 -0.86,0.76 -1.73,-0.84 -1.7,0 -0.91,2.66 -0.29,4.55 -1.13,-0.96 0.1,2.79 z m 37.46,-55.05 1.44,-0.78 1.15,1.07 1.58,-2.03 -0.36,-1.15 -2.06,-0.73 -1.15,1.42 -1.59,-0.39 -1.55,2 -0.02,1.58 1.83,0.95 0.73,-1.94 z m 2.83,114.63 -0.5,1.01 0.27,2.11 1.44,-1.91 0.01,-1.34 -0.64,-0.82 -0.58,0.95 z m -81.91,-381.18 0.83,-5.72 -7.11,-8.34 -2.11,-0.98 -2.3,1.7 -5.12,18.6 15.81,-5.26 z m -32.98,-16.27 4.65,5.73 7.81,4.2 6.12,-1.8 0.69,-13.62 -6.46,-16.04 -5.45,-9.02 -6.07,4.11 -7.28,11.83 3.83,3.27 2.16,11.34 z m -34.98,355.39 -1.94,-1.57 -1.27,4.58 0.5,4.04 1.33,2.23 2.44,-0.64 1.18,-0.8 0.42,-2.92 -1.36,-2.93 -1.3,-1.99 z m 168.16,-285.9 -2.66,3.92 0.49,0.52 5.75,1.08 4.25,-0.07 -0.34,-2.57 -3.98,-3.81 -3.51,0.93 z m -0.56,-11.22 10.33,0.3 2.21,-8.14 -10.13,-6.07 -7.4,-0.51 -3.7,2.18 -1.51,7.75 5.55,7.01 4.65,-2.52 z m 110.44,38.31 3.66,-0.52 2.89,-2.06 0.24,-1.19 -4.06,-2.51 -2.38,-0.02 -0.36,0.37 -3.57,3.64 0.5,2.73 3.08,-0.44 z m -85.31,-36.62 3.24,-4.25 -7.04,-2.88 -5.23,-1.68 -0.67,3.59 5.21,4.27 4.49,0.95 z m -122.58,333.36 0.7,-3.47 -1.36,-1.76 -2.06,-0.25 -0.98,-1.56 -0.48,-1.94 -1.01,-0.07 -1.61,-0.97 1.12,-2.27 -2.13,-1.27 -1.62,-2.33 -2.36,-1.91 -2.85,-0.04 -2.66,-3 -1.55,-1.16 -2.17,-1.89 -2.48,-2.73 -4.34,-0.54 -1.81,-0.11 0.25,1.42 2.92,3.08 2.11,1.56 1.47,2.39 2.53,1.75 1.03,2.17 0.82,2.39 2.46,2.32 2.13,3.9 1.39,2.09 2.12,2.27 1.2,1.69 3.6,2.28 2.36,2.34 3.1,-0.06 0.16,-4.32 z m 36.51,11.14 -1.73,0.23 -1.01,-0.75 -0.75,1 -1.54,0.02 -0.96,1.62 1.51,0.02 1.94,-0.38 3.24,-0.57 -0.7,-1.19 z m 2.87,3.05 -2.61,0.56 3.72,1.98 1.18,-0.05 0.17,-0.76 -0.98,-0.86 -1.48,-0.87 z m -2.45,-54.2 1.85,-1.56 -0.5,-2.31 -1.47,2.82 -1.68,1.96 -2.03,1.74 -1.38,1.97 3.73,-2.67 1.48,-1.95 z m 5.35,31.93 -2.51,-2.48 0.4,-2.11 2.45,-0.4 4.67,-0.14 2.7,0.54 2.11,-0.54 2.25,-2.76 -0.49,-0.62 -2.77,2.02 -3.22,0.12 -3.54,-0.39 -2.19,-0.82 -2.38,2.07 -0.59,1.15 -1.41,4.2 -0.4,2.21 -1.16,1.83 0.87,1.91 1.18,0.02 0.43,2.69 -0.8,2.57 1.2,0.82 1.78,-0.41 -0.11,-4 -0.24,-3.25 1.87,-0.85 -0.21,2.72 2.02,1.64 -0.36,1.08 0.7,0.77 2.75,-1.08 -1.36,2.29 1.1,0.98 1.5,-0.82 0.02,-1.84 -2.52,-3.22 0.51,-0.96 -2.65,-3.57 2.47,-1.08 1.22,-1.63 1.22,0.4 0.23,-1.28 -5.23,0.95 -1.51,1.27 z m 1.14,19.94 -1.76,-0.84 -2.23,0.59 0.01,1.03 3.73,0.35 4.21,-0.8 0.41,-1.56 -2.51,1.03 -1.86,0.2 z m -10.84,-24.15 0.94,-1.9 3.32,-0.33 -3.14,-2.58 0.48,-1.28 -2.06,-2.64 1.59,-2.52 2.06,-0.95 -0.5,-1.36 1.88,-0.14 0.2,-1.1 -2.34,-0.84 -1.85,-0.78 -0.13,-1.22 -1.44,-1.42 -1.13,0.01 -1.41,2.19 -2.16,1.95 -2.39,1.53 -1.11,1.05 -1.38,1.77 -2.01,2.21 -3.36,0.6 -1.2,0.53 -0.56,2.36 -2.17,0.52 -2.05,-0.96 -1.67,1.85 -0.33,2.58 0.39,2.44 1.35,2.38 1.4,0.77 0.43,3.74 2.31,0.32 1.84,-0.15 1.02,1.35 3.33,-1 1.4,0.89 2,0.16 1.11,1.71 3.19,-1.26 0.41,0.99 1.08,-4.27 0.07,-2.78 2.7,-1.91 -0.11,-2.51 z m -19.36,-54.4 1.23,-1.3 -0.63,-1.13 -1.61,-0.07 -3.06,0.83 -1.38,1.34 0.08,2.53 2.3,0.91 2.42,-1.41 0.65,-1.7 z m 6.75,75.9 -1.02,-1.82 -5.2,-1.35 -0.62,1.16 -5.37,-0.28 -0.38,-1 -1.16,-0.21 -2.26,-1.09 -3.4,-0.17 -1.92,2.68 2.57,0.21 0.49,1.21 5.11,1.16 1.17,-0.35 2.06,0.28 3.25,1.07 2.62,0.51 2.91,0.21 2.54,-0.08 3.08,1.13 3.2,-1.07 -3.44,-1.67 -4.23,-0.53 z"
       inkscape:connector-curvature="0"
       style="fill:#cccccc;fill-opacity:1;stroke:#ffffff;stroke-width:0.5;stroke-opacity:1" />
    <path
       id="europe"
       title="Europe"
       class="land"
       d="m 533.37,106.83 1.94,-3.42 -1.69,-4.34 5.81,-2.78 1.11,5.18 4.05,3.03 -6.26,5.36 -4.96,-3.03 z m -2.33,-31.24 0.5,4.32 8.27,2.56 8.13,-1.81 4.16,-8.52 -5.5,-5.8 -7.09,-4.26 -2.84,5.09 -4.07,-4.08 -8.66,4.72 3.07,7.48 4.03,0.3 z m -18.86,26.6 4.2,3.86 -2.54,4.62 6.03,7.64 3.38,-0.48 1.33,-10.51 2.46,-2.49 1.56,-10.09 7.06,-5.66 -9.23,-11.29 -3.54,-5.57 -4.12,0.56 -1.06,5.43 -3.99,0.22 -1.54,-5.56 -7.64,5.69 2.18,11.79 5.46,11.84 z m -77.61,110.24 -4.65,-0.5 -4.57,3.71 -3.53,-1.96 -4.26,3.75 -4.37,-4.68 -4.25,1.03 -1.89,4.47 5.88,1.57 0.12,1.96 -4.96,1.28 6.1,3.2 -2.76,2.84 7.82,2.01 3.69,0.93 2.42,-1.15 8.09,-4.38 3.65,-5.01 -3.17,-4.6 0.64,-4.47 z m 25.02,64.89 1.51,-2.34 0.92,1.37 -1.02,2.2 0.67,1.32 3.4,0.85 0.04,0.07 1.88,2.95 -0.41,2.74 0,0 -4.17,-0.42 -0.53,3.06 1.54,2.48 -2.93,1.41 0.79,1.8 4.38,0.75 0.02,0 -2.51,0.97 -4.11,4.64 1.49,0.87 1.97,-1.67 2.59,0.5 1.85,-2.06 1.31,0.87 4.77,-1.21 3.75,0.04 2.52,-2.33 -1.12,-2.33 1.43,-1.33 0.34,-2.93 -3.4,-0.88 -0.8,-1.84 -1.73,-5.41 -1.92,-0.77 -2.5,-5.79 -0.22,-0.52 -2.9,-0.32 2.52,-4.53 0.73,-4.22 -3.07,-0.03 -2.86,0.72 3,-5.73 -3.38,0.45 -2.24,-0.42 -2.18,4.31 -1.02,5.36 1.42,2.59 0.18,4.76 z m 146.05,-208.29 3.04,3.88 3.28,-2.69 0.39,-2.72 2.52,-1.27 3.76,-2.23 1.08,-2.62 -4.16,-3.85 -2.64,2.9 -1.61,4.12 -0.57,-4.65 -4.26,0.21 -5.47,3.14 6.24,0.52 -1.6,5.26 z m 16.75,97.25 -2.87,1.96 0.41,4.83 5.08,2.35 0.74,3.82 9.16,1.1 1.66,-0.74 -5.36,-7.11 -0.57,-7.52 4.39,-9.14 4.18,-9.82 8.71,-10.17 8.56,-5.34 9.93,-5.74 1.88,-3.71 -1.95,-4.83 -5.46,1.6 -4.8,4.49 -9.33,2.22 -9.26,7.41 -6.27,5.85 0.76,4.87 -6.71,9.03 2.58,1.22 -5.56,8.27 0.1,5.1 z m -105.75,181.91 -2.86,0.39 -3.28,-0.32 -0.39,1.82 3.91,1.79 1.43,0.38 2.14,1.31 0.59,-1.79 -0.42,-1.09 1.01,-2.78 -2.13,0.29 z m 53.01,9.66 -2.02,-0.05 -0.41,0.82 -0.2,0.02 -1.33,0.13 0.66,1.37 1.37,0.44 2.87,-1.38 -0.09,-0.27 -0.2,-0.64 1.89,-1.46 -2.54,1.02 z m -22.14,0.07 -2.09,-0.24 -2.18,0.2 -1.53,-1.16 -0.52,1.46 3.42,0.67 -0.03,0.56 4.04,-0.29 0.35,-1.01 -1.53,0.41 0.07,-0.6 z m -96.26,-63.47 4.97,-2.68 2.12,-4.12 -0.46,-3.36 1.5,-3.29 -3.01,-3.01 -2.35,0.2 -2.12,2.27 -3.81,3.75 1.46,4.77 -2.27,4.78 3.97,0.69 z m 205.94,-102.69 -3.88,-2.49 -8.28,-2.44 -1.46,2.66 2.94,4.58 -3.19,5.09 -3.2,-4.62 -4.16,3.19 -5.25,0.21 -2.01,2.58 -3.48,-0.78 2.76,-4.64 -2.11,-0.38 -9.79,6.54 -5.86,3.52 -0.69,4.61 -4.33,1.54 -2.2,-2.43 -0.02,-4.04 3.55,-0.91 -1.6,-4.18 -7.84,-2.44 2.06,4.69 -1.37,4.41 2.34,4.28 -1.63,4.81 -2.62,-2.43 -2.59,-0.4 -6.53,6.74 1.89,4.88 -2.36,1.59 -6.78,-4.1 -1.78,2.51 1.69,2.8 -0.36,3.11 -2.19,-1.66 -3.61,-1.97 -0.18,-6.75 -0.18,-3.15 -4.57,-5.1 2.06,-0.9 12.52,5.31 4.58,-1.85 3.11,-3.69 -0.19,-4.8 -2.15,-3.51 -10.59,-8.65 -7.68,-1.88 -4.61,-4.86 -2.89,2.81 -3.07,-5.11 3.61,-2.23 -8.77,-6.24 -5.03,1.72 -5.11,-0.38 -4.27,6.99 -4.61,-0.44 -6.15,3.59 -7.71,9.89 -4.7,5.67 -6.74,13.76 -5.13,9.3 -5.54,6.59 -7.4,5.18 -2.58,3.88 0.89,13.26 1,5.86 3.88,2.71 3.74,-1.24 5.54,-6.27 1.88,3.35 2.13,7.5 2.35,5.81 0.89,4.71 3.25,-0.23 1.59,-3.95 3.4,0.49 1.59,-4.76 1.07,-8.84 2.92,-1.27 2.58,-6.23 -2.68,-3.14 -2,-4.07 2.04,-8.41 5.41,-5.34 4.46,-5.14 -0.44,-4.02 2.72,-4.69 4.82,-1.94 3.9,3.23 0.29,2.84 -1.87,1.39 -6.41,7.02 -2.54,3.94 -1.34,3.58 1.36,5.41 -0.62,5.73 2.72,1.87 1.62,3.07 4.56,-1.18 4.93,-2.07 5.09,-0.45 2.94,2.68 -3.19,3.07 -2.89,0.16 -3.04,-0.91 -3.53,0.8 -3.55,1.53 0.24,3.11 1.78,1.9 1.03,-0.67 -0.33,3.12 -0.54,3.99 -2.25,0.1 -2.23,-3.88 -2.64,1.78 -1.38,3.24 -0.1,3.81 0.6,4.16 -3.87,1.58 -0.64,2.13 -2.7,-0.06 -0.21,-1.18 -2.8,-0.82 -3.53,1.64 -4.38,2.22 -1.92,1.39 -1.32,-1.51 -3.17,-1.89 -1.58,1.31 -2.85,0.9 0.03,-1.7 -2.83,-1.12 -0.05,-1.88 -0.76,-2.39 2.02,-3.59 0.83,0.55 0.69,-1.9 -1.52,-0.77 -0.34,-1.43 0.83,-1.68 0.1,-2.68 -2.26,1.47 -0.98,1.43 -2.47,0.32 -0.8,1.54 -0.47,1.38 0.08,5.12 1.14,2.72 0.13,2.74 0.64,1.79 -1.9,2.33 -0.52,-1.04 -2.34,0.26 -0.55,1 -2.33,-0.13 -3.84,1.96 -2.46,6.74 -1.44,1.23 -2.25,0.88 -2.45,0.9 -0.84,3.61 -6.53,3.37 -2.65,-1.85 0.89,4.84 -4.71,-1.09 -3.64,0.92 0.28,3.07 4.29,1.6 2.07,2.09 2.89,4.26 -0.53,7.88 -1.45,2.32 -4.53,-0.13 -2.33,0.2 -2.98,-0.66 -3.76,0.02 -3.43,-0.7 -3.97,2.77 1.15,1.65 -0.14,2.69 0.12,1.26 0.56,1.34 0.06,1.57 -0.58,2.21 -0.2,1.47 -1.12,1.32 -0.22,2.35 0.67,1.35 1.25,0.33 0.26,2.18 -0.43,2.75 1.45,-0.38 1.48,0.49 1.13,-0.91 2.62,0.54 0.79,2 1.04,1.17 1.37,0.29 1.07,-1.31 1.76,-1.23 2.67,0.07 3.56,-0.05 1.99,-2.69 2.12,-0.7 0.61,-2.3 1.62,-1.59 -1.09,-2.05 1.08,-2.96 1.72,-2.03 0.25,-1.24 3.59,-0.78 2.66,-2.49 -0.15,-2.19 0.32,-2.29 4.08,-1.24 5.53,1.04 2.54,-2.17 1.17,-0.28 1.62,-1.8 1.29,-0.53 2.28,1.29 1.4,0.45 0.87,3.8 1.91,2.19 2.56,2.45 2.19,1.68 2.07,0.24 1.21,1.49 1.8,0.67 0.83,1.58 1.16,0.46 0.86,1.83 1.09,2.09 -0.61,0.77 -0.57,1.91 -0.01,1.08 1.17,-0.27 1.5,-3.06 1.17,-0.21 0.33,-1.88 -2.03,-1.34 1.18,-2.36 2.44,0.6 1.56,1.7 0.52,-1.31 -0.29,-0.68 -2.4,-1.92 -2.06,-1.12 -2.51,-1.35 0.79,-0.74 -0.68,-0.83 -2.2,0.02 -3.12,-3.05 -1.41,-3.17 -2.63,-1.95 -0.92,-1.99 0.34,-1.12 -0.16,-1.97 2.28,-1.42 2.23,0.58 -0.62,0.36 -0.1,0.06 -0.06,1.38 0.83,1.32 0.86,-1.71 1.8,0.63 0.05,1.33 1.28,1.65 -0.57,0.29 2.36,2.85 2.56,1.14 1.63,1.38 2.64,1.41 0,0 1.21,0.75 0.79,1.23 0.59,0.29 0.47,0.59 -0.38,1.16 -0.24,2.53 0.24,1.75 1.55,1.23 0.06,0.8 0.48,0.25 0.19,1.03 1.44,2.05 1.09,1.64 0.49,2.36 1.05,2.81 2.3,1.51 1.86,-0.04 -1.06,-3.08 1.78,-0.37 -0.83,-1.8 2.59,0.94 -0.04,-2 -1.39,-1.03 -1.56,-1.65 1.06,-0.79 -1.4,-1.7 -0.63,-2.18 0.53,-0.8 1.48,1.88 1.56,0 1.42,-0.59 -1.94,-2.06 3.4,-0.96 1.46,0.35 1.71,0.1 -0.04,0.76 0.88,1.71 2.34,-1.98 1.2,-1.14 3.33,-0.2 0.51,-0.91 -2.45,-1.2 -0.33,-1.44 -0.9,-2.15 1.02,-2.73 1.46,-1.6 0.78,-4.71 0.85,0.37 1.36,-0.85 -0.06,-1.02 2.17,-2.96 1.04,-2.23 2.6,-0.5 0.19,1.51 4.36,1.02 0.81,0.92 -2.68,1.33 -0.5,0.76 3.06,1.16 -0.62,1.85 1.56,0.8 3.81,-2.27 3.07,-0.69 0.55,-1.42 -2.86,0.24 -1.37,-0.96 -0.16,-2.5 2.42,-1.51 2.63,-0.21 1.87,-1.32 2.24,-0.33 2.52,-0.66 0.07,0.9 -4.13,1.67 1.57,1.6 -2.33,3.35 -2.04,0.64 2.42,2.32 3.2,1.48 3.57,3.27 1.03,1.18 1.55,0.44 1.62,1.4 0.7,2.58 -0.42,1.6 -3.31,1.94 -2.41,-0.33 -3.27,0.57 -4.02,-1.43 -4.89,-2.64 -4.64,0.08 -3.27,1.06 -3.37,2.42 -5.34,-0.49 -1.18,2.81 -4.32,0.15 -3.11,3.48 1.78,1.72 -1.36,2.78 2.05,1.96 1.66,3.48 3.06,-0.06 2.71,1.85 1.94,-0.41 0.65,-1.44 3.02,0.12 2.27,1.86 4.26,-0.39 1.93,-2 2.35,0.8 1.71,-0.3 -1.06,1.3 1.03,1.57 0.75,-0.76 0.75,-0.76 0.15,-1.94 0.92,0.68 3.09,-0.97 1.49,0.66 2.31,-0.01 3.23,-1.31 1.51,0.06 3.19,-0.54 1.2,-0.55 3.26,0.45 0.98,0.89 1.34,-0.59 -1.53,-2.82 0.55,-1.1 -0.88,-4.11 1.92,-1.03 0.44,1.37 1.42,1.66 1.92,0.48 1.02,-0.11 3.31,-2.66 1.05,-0.27 0.83,1.06 -0.97,1.78 1.75,1.87 0.7,-0.18 -0.08,-1.77 1.03,-0.84 0.48,-1.26 0.49,-2.82 2.31,-0.29 -0.86,-0.99 -1.31,-0.17 -1.43,-2.62 -1.47,-1.97 -3.06,-4.46 0.28,-2.59 -2.55,-3.7 2.79,-4.09 2.72,-0.66 1.28,-2.39 -1.42,-0.66 0.28,-2.1 -1.79,-2.76 -2.08,0.12 -2.38,-2.84 1.62,-3.21 -0.82,-0.87 2.24,-4.77 2.88,2.53 0.35,-3.19 5.79,-4.85 4.38,-0.12 6.18,3.1 3.32,1.79 2.98,-1.87 4.45,-0.09 3.59,2.29 0.81,-1.31 3.94,0.19 0.7,-2.11 -4.54,-3.1 0.37,-0.3 -0.3,-0.11 -0.8,-1.88 -1.88,-0.67 -0.09,-2.65 1.13,-2.2 1.33,-1.39 -0.71,-1.75 -1.89,-1.07 -1.84,1.12 -1.9,1.5 -1.81,-2.32 -1.2,-1.83 -1.3,-2.44 3.08,-0.37 2.57,-0.64 1.66,-2.67 -0.31,-2.15 -2.11,-1.76 0.56,-2.42 2.17,-2.73 1.78,-3.54 1.77,-5 1.34,-8.84 1.89,-19.97 5.23,-4.07 4.82,-5.44 3.93,-3.13 3.76,-3.86 2.03,-4.04 -0.92,-7.34 -8.66,-7.34 z m -157.52,146.45 -1.54,-0.19 0.64,2.1 0.11,4.38 1.06,0.95 1.14,-1.2 1.27,0.23 0.39,-4.81 -1.68,-2.62 -1.39,1.16 z m 1.46,-1.78 0.93,-2.89 -0.48,-3.25 -1.81,1.45 -0.57,1.41 0.65,2.53 1.28,0.75 z m 8.02,-56.62 1.68,-3.97 -0.9,-2.5 -4.11,1.66 0.39,2.05 2.94,2.76 z"
       inkscape:connector-curvature="0"
       style="fill:#cccccc;fill-opacity:1;stroke:#ffffff;stroke-width:0.5;stroke-opacity:1" />
    <path
       id="australia"
       title="Australia and Oceania"
       class="land"
       d="m 944.1,508.23 1.76,1.67 -0.92,0.38 -0.94,-1.27 0.1,-0.78 z m -1.18,-0.64 0.58,-0.16 0.75,0.36 -0.46,-2.33 -1.34,-0.89 0.06,2.21 0.41,0.81 z m -272.58,112.77 -1.81,-1.34 -0.19,0.87 -0.41,1.76 0.07,2.29 4.3,-0.28 0.79,-1.96 -0.1,-0.81 -2.65,-0.53 z m 254.55,-130.67 -1.85,-0.44 -0.18,1.12 0.59,0.44 1.72,0.29 1.09,-0.06 -0.46,-0.74 -0.91,-0.61 z m -10.71,-7.88 -0.14,0.47 1.15,1.15 1.23,0.64 0.56,-0.16 -1.12,-0.92 -1.68,-1.18 z m 9.34,4.88 -0.66,-0.89 -2.3,-1.29 -1.29,-0.67 -0.42,0.29 1.05,0.94 1.54,1.01 2.2,1.19 -0.12,-0.58 z m 5.73,5.96 -1.67,-0.69 1.07,1.74 1.96,0.02 -0.78,-0.97 -0.58,-0.1 z m -1.09,-1.88 0.42,-0.52 -1.12,-1.35 -1.01,-2.25 -0.95,0 0.58,1.68 2.08,2.44 z m -57.47,-1.88 2.9,0.12 1.57,0.47 2.2,-0.97 -0.36,-2.08 1.71,-0.93 2.38,-0.8 3.66,1.23 1.46,2.46 1.59,1.55 2.18,1.8 2.83,0.43 2.41,0.32 0.69,0.73 1.86,-0.2 0.31,-0.82 -2.98,-1.19 0.84,-0.53 -2.17,-0.48 0.11,-1.25 -1.61,0.09 -1.82,-2.99 -2.5,-1.84 -0.62,-1.87 2.58,-0.3 -0.68,-1.49 -4.67,-1.73 -0.43,-1.65 -1.56,-1.41 -1.93,-1.43 -5.18,-1.6 -4.87,-1.92 0.05,9.1 0.05,9.18 z m 24.33,-7.88 1.49,0 1.44,-0.66 1.53,-0.68 0.44,-0.79 1.47,-0.23 0.94,-1.71 0.06,-1.55 -0.57,-0.46 -1.68,0.05 0.31,1.65 -1.57,1 -0.79,0.96 -1.6,0.21 -0.27,-1.49 -0.4,0.07 -0.42,1.34 -1.53,0.22 -2.51,-0.41 -0.23,0.87 1.6,0.78 2.29,0.83 z m 6.29,-7.98 1.27,0.91 0.65,1.08 0.53,1.65 0.88,-0.74 -0.34,-1.45 -1.07,-0.89 -1.12,-1.17 -1.18,-0.67 -0.95,-0.61 -1.51,-0.78 -0.78,0.67 2.02,0.82 1.6,1.18 z m 8.72,5.88 -0.85,-0.63 -0.3,-0.83 -0.39,0.27 0.6,2.13 1.23,1.78 1.21,1.08 0.79,-0.28 0.39,-0.79 -1.32,-0.95 -1.36,-1.78 z m 52.98,109.75 -1.99,1.5 -0.64,-1.53 -0.62,-1.57 -1.97,1.7 -0.42,2.07 -1.06,0.95 -1.25,2.81 -1.68,1.98 -2.4,2.01 -2.01,1.47 -1.81,0.73 -3.53,3.87 -1.51,2.96 0.47,1.48 3.05,0.28 1.82,1.34 2.58,0.09 1.4,-1.16 2.2,-1.8 1.59,-4.03 0.75,-2.57 2.4,-1.46 2.16,-0.05 -1.03,-1.86 1.43,-1.54 1.83,-2.8 1.04,-1.74 0,-1.57 -0.8,-1.56 z m 9.76,-10.73 -1.89,-0.28 -2.26,-1.15 -0.42,-2.65 -1.27,-0.95 -0.06,2.38 -2.03,-3.67 -0.79,-3.06 -2.18,-0.89 -1.53,-1.89 -1.04,0.27 1.17,2.41 2.21,3.04 1.34,1.43 -0.08,0.61 1.14,2.34 0.13,2.28 -0.47,2.74 -2.03,1.25 -0.08,1.31 3.02,1.45 0.92,2.01 -1.62,3.04 1.17,0.54 0.48,0.98 2.17,-1.49 1.39,-2.53 1.06,-1.97 0.41,-0.68 -0.26,-1.56 0.75,-1.1 2.14,0.07 0.85,-2.09 0.68,-3.15 -1.42,-0.41 -1.6,1.37 z m -28.94,-51.21 -1.46,-1.38 -2.3,-1.86 -0.9,-0.84 -1.23,-1.01 -1.57,-1.01 -1.21,-0.04 0.39,1.01 1.86,2.1 1.81,1.59 2.01,1.35 1.54,0.81 1.06,-0.72 z m 36.12,-17.98 -1.64,0.91 -0.89,0.16 -1.4,0.6 0.36,1.09 1.79,-0.61 1.78,-0.72 0.23,-0.16 0.35,-1.4 -0.58,0.13 z m -5.26,4.18 -1.27,-0.36 -1.08,1 0.27,1.29 1.55,0.36 1.74,-0.4 0.46,-1.53 -0.96,-0.84 -0.71,0.48 z m -85.34,75.3 -2.19,0.71 -1.53,0.51 -2.71,-1.28 -1.83,-0.33 -0.07,1.7 1.62,3.25 0.38,2.5 1.73,3.28 1.72,0.12 0.58,0.21 1.95,-2.67 0.98,1.05 0.29,-3.06 0.96,-1.3 -0.2,-4.43 -1.68,-0.26 z m 15.35,-47.77 -0.07,-1.77 -0.79,-2.49 -2.19,-2.49 -1.3,-1.17 -1.99,-1.87 -0.48,-3.21 -0.69,0.46 -1.14,-1.31 -1.12,0.66 -1.09,-3.25 -1.6,-1.87 0.37,-0.72 -1.88,-1.29 -1.98,-1.41 -3.04,-1.54 -0.91,-1.99 0.27,-1.52 -0.76,-2.5 -0.71,-0.35 -0.43,-1.45 -0.6,-2.48 0.29,-1.28 -1.35,-1.13 -0.93,-1.22 -1.8,1.08 -1.01,-2.25 0.1,-1.04 -0.21,-1.62 -1.02,-1.45 -0.12,-1.2 -0.7,-0.34 -0.19,-1.78 -0.79,-1.39 -1.04,1.06 -0.07,0.81 -0.53,1.56 -0.68,1.51 0.44,0.95 -0.54,0.58 -0.37,2.16 0.32,1.64 -0.2,0.84 0.39,1.39 -0.85,2.3 -0.35,1.59 -0.57,1.29 -0.55,1.57 -1.85,1 -2.68,-0.99 -0.43,-0.9 -1.47,-0.75 -0.79,0 -2.03,-1.72 -1.44,-1 -2.16,-0.93 -2.23,-1.6 -0.2,-0.81 1,-1.41 0.82,-1.43 -0.33,-1.15 0.96,-0.1 1.06,-1.16 0.75,-1.53 -1.29,-1.41 -0.66,0.55 -1.05,-0.25 -1.64,0.82 -1.74,-0.88 -0.8,0.29 -2.36,-0.73 -1.49,-1.17 -1.86,-0.7 -1.49,0.41 2.05,0.94 0.05,1.45 -2.36,0.54 -1.43,-0.34 -1.7,1.01 -1.22,1.63 0.44,0.71 -1.26,0.75 -1.34,2.3 0.59,1.58 -1.78,-0.27 -1.75,-0.02 -1.56,-1.71 -2.07,-1.32 -1.36,0.39 -1.23,0.41 -0.05,0.72 -1.23,-0.34 -0.04,0.8 -1.41,0.49 -0.68,1.14 -1.53,1.42 -0.34,2.21 -1.24,-0.63 -0.88,1.41 1,1.38 -1.19,0.58 -1.18,-2.51 -1.96,2.47 -0.07,1.59 -0.13,1.17 -1.64,1.49 -0.72,1.58 -1.52,1.31 -2.95,0.87 -1.55,-0.07 -0.74,0.27 -0.42,0.65 -1.7,0.33 -2.21,1.11 -0.77,-0.37 -1.27,0.23 -2.14,1.1 -1.37,1.28 -2.28,1 -1.18,2.07 -0.21,-2.29 -1.16,2.17 0.3,1.77 -0.38,1.52 -0.57,0.75 -0.3,1.77 0.65,0.92 0.27,0.97 1.39,2.43 0.05,1.59 -0.83,-1.2 -1.39,-0.9 0.95,2.88 -1.23,-1.35 0.39,1.33 1.6,2.48 0.35,2.47 1.24,1.26 0.07,0.93 1.12,2.08 -0.12,1.83 0.46,1.85 1.48,3.29 0.31,1.95 -0.34,2.3 0.1,1.2 -0.48,0.76 -1.39,0.46 -0.06,1.93 1.51,0.64 2.97,2.17 1.88,0 2.05,0.13 1.35,-1.08 1.41,-0.96 0.82,0.15 1.67,-1.8 1.92,-0.15 2.02,-0.37 2.48,0.61 1.76,-0.3 2.38,-0.08 1.04,-1.36 0.54,-1.75 2.43,-0.77 2.97,-1.7 2.68,0.22 3.19,-1.1 3.63,-1.18 5.02,-0.31 2.7,1.6 1.97,0.09 3.6,2 -0.53,0.77 1.48,1.25 1.75,2.43 -0.09,1.79 2.19,1.4 1.07,-2.69 1.75,-1.15 2.28,-2.85 0.22,2.47 -1.08,1.65 -0.42,1.95 -1.47,1.88 2.5,-0.63 1.37,-2.35 0.68,2.52 -0.92,1.66 2.7,0.41 1.38,1.4 0.65,1.75 0.52,2.66 1.81,2.18 2.71,1.03 1.6,0.25 1.59,0.56 2.42,0.97 2.46,-2.58 1.53,-0.67 -0.44,1.85 1.72,0.63 2.32,1.58 1.69,-1.54 1.29,-1.38 2.59,-1.45 3.14,-0.13 1.61,-1.22 -0.14,-1.11 0.36,-2.4 0.71,-2.58 1.08,-1.71 0.83,-2.93 0.94,-1.67 1.02,-2.59 2.08,-1.63 1.24,-3 0.55,-2.34 -0.06,-1.86 0.76,-2.87 0.49,-1.48 0.16,-2.81 -1.34,-2.68 0.17,-1.91 z"
       inkscape:connector-curvature="0"
       style="fill:#cccccc;fill-opacity:1;stroke:#ffffff;stroke-width:0.5;stroke-opacity:1" />
    <path
       id="africa"
       title="Africa"
       class="land"
       d="m 618.63,430.43 -0.06,-0.79 -1.06,0.01 -1.33,0.97 -1.49,0.29 -1.29,0.42 -0.9,0.06 -1.6,0.1 -1,0.52 -1.39,0.19 -2.47,0.88 -3.05,0.34 -2.64,0.73 -1.39,-0.01 -1.26,-1.19 -0.55,-1.17 -0.91,-0.52 -1.2,-0.78 1.6,-0.68 0.09,-1.18 -0.66,-0.88 -1.38,-0.86 -0.88,-0.98 -1.52,-1.65 -1.56,-1.64 -3.83,-2.72 -1.54,-1.41 -0.77,-2.67 -1.63,-3.38 -1.53,-1.08 -1.07,-0.72 -1.03,-3.52 -0.41,-3.06 0.61,-0.54 -0.9,-2.94 -0.49,-0.62 -3.27,-2.71 -0.09,-1.97 0.56,-0.53 -2.52,-3.39 -0.9,-1.74 -1.04,-1.69 -2.12,-4.87 -1.72,-3.18 -1.16,-3.37 0.29,-0.29 2,4.58 1.27,1.41 0.93,1.02 0.65,-0.55 0.76,-1.65 0.6,-2.4 0.79,-1.29 -1.84,-5.56 -1.38,0.82 -2.19,-0.18 -2.25,-0.77 -0.65,1.06 -0.76,-1.62 -1.99,-0.41 -2.47,0.27 -1.15,0.94 -2.16,1.03 -1.3,-0.51 -2.78,-0.96 -2.7,-0.86 -3.73,0.05 -0.68,-1.08 -2.79,-0.39 -0.89,-0.56 -1.04,-0.01 -0.96,-1.48 -3.79,-0.68 -1.93,0.45 -2.02,1.55 -0.88,1.6 0.65,2.5 -1.34,1.49 -1.37,0.84 -2.99,-1.61 -3.95,-1.36 -2.52,-0.63 -1.31,-2.92 -3.72,-1.48 -2.34,-0.55 -1.18,0.29 -3.29,-1.15 -1.07,-0.52 -0.71,-1.59 -1.45,-0.06 -0.53,-1.84 1.85,-1.7 0.37,-2.96 -0.97,-0.86 0.02,-1.6 1.4,-1.71 -0.2,-0.67 -2.38,1.29 0.08,-1.77 -1.96,-0.42 -3.05,1.41 -1.92,0.21 -1.14,-0.81 -3,0.03 -2.64,1.38 -1.41,-0.52 -4.64,0.28 -4.75,0.62 -2.7,1.06 -1.77,1.43 -3.03,0.6 -2.7,1.87 -1.22,-0.04 -2.9,-0.75 -2.67,0.24 -1.69,-1.46 -2.06,-0.02 -0.88,2.1 -1.87,3.51 -2.08,1.39 -2.81,1.53 -1.8,2.25 -0.38,1.74 -1.07,2.82 0.7,4.03 -2.34,2.68 -1.41,0.85 -2.21,2.17 -2.61,0.35 -1.41,1.21 -0.05,0.04 -1.78,3.2 -1.87,1.14 -1.01,1.92 -0.07,1.64 -0.74,1.79 -0.94,0.49 -1.56,1.94 -0.96,2.14 0.18,1.02 -0.92,1.57 -1.08,0.82 -0.13,1.39 -0.12,1.26 1.48,1.29 0.72,1.41 -0.28,1.48 0.34,1.47 0.31,2.91 -0.35,2.75 -0.78,1.44 0.24,1.57 -0.67,1.49 -1.36,2.03 -1.23,0.55 1.4,1.02 1.16,2.24 -0.36,1.27 0.46,2.19 0.18,0.61 0.85,0.6 -0.02,0.43 0.64,0.8 1.18,0.19 1.5,1.19 0.82,0.47 0.41,0.62 0.32,1.25 0.7,0.56 0.72,0.37 1.09,1.11 1.23,1.67 0.34,2.08 0.49,1.03 1.46,1.5 2.02,1.13 0.76,0.21 1.89,1.81 2.39,1.53 2.55,2.13 2.89,1.33 0.73,-0.02 0.54,0.07 2.78,-1.02 1.95,-0.81 3.32,-0.49 1.8,-0.03 1.96,0.55 1.28,-0.03 2.5,0.79 2.53,-0.81 1.56,-0.96 4.4,-1.64 2.26,-0.6 2.32,-0.33 2.47,0 2.11,-0.03 1.98,1.85 0.92,2.02 1.5,1.75 2.24,0.06 1.08,-0.63 1.06,0.15 2.91,-1.01 -0.03,0.77 0.72,0.4 0.57,1.25 1.28,0.47 1.1,1.84 -0.41,2.2 -0.96,3.13 0.52,0.42 -0.56,2.06 -0.68,2.03 -0.61,0.89 -0.09,0.93 1.7,2.88 1.85,2.3 2.88,2.82 2.3,2.96 0.75,2.1 0.39,0.87 -0.27,0.54 1.4,1.77 0.57,1.88 0.85,2.72 -0.86,1.12 -0.15,0.59 0.69,1.69 0.75,1.72 0.84,1.01 0.15,1.61 -0.29,2.11 -0.9,1.27 -1.61,1.87 -0.67,1.17 -0.91,2.59 -0.15,1.24 -0.97,2.65 -0.39,2.55 0.26,1.83 0.17,2.24 2.28,2.87 0.61,1.85 1.47,3.56 1.45,2.47 1.09,1.24 0.36,1.64 0.06,3.63 0.94,4.72 0.69,2.24 0.62,3.04 1.1,2.3 2.08,2.39 2.01,4.15 0,0.01 1.41,2.74 1.84,3.05 0.07,2.53 -0.9,0.6 0.91,2.23 -0.02,1.96 0.37,0.91 0.13,-0.47 1.21,1.51 0.95,0.06 1.19,1.21 1.28,-0.08 1.73,-1.28 2.39,-0.54 2.89,-1.33 1.16,0.18 1.7,-0.41 3.04,0.65 1.39,-0.64 1.7,0.5 0.36,-0.93 1.43,-0.17 2.93,-1.3 2.12,-1.51 1.98,-1.98 3.17,-3.38 1.59,-2.33 0.78,-1.66 1.19,-1.63 0.55,-0.46 1.91,-1.61 0.73,-1.43 0.33,-2.62 0.7,-2.28 0.24,-1.64 -0.72,-0.21 -0.24,-1.31 1.23,-1.14 3.37,-1.67 2.31,-1.04 1.17,-1.09 0.42,-1.27 -0.66,-0.52 0.45,-1.41 0.08,-2.96 -0.5,0.15 -0.04,-0.9 -0.55,-1.76 -1.33,-2.26 0.24,-2.12 1.16,-0.68 1.96,-2.1 1.08,-0.54 3.17,-3.15 3.16,-1.42 2.56,-1.11 1.79,-1.8 1.09,-2.01 0.84,-2.06 -0.49,-1.41 -0.11,-4.48 -0.35,-2.5 0.12,-2.83 -0.45,-1.27 -1.03,-0.62 -1.16,-2.79 -0.98,-1.77 0.18,-1.34 -0.16,-0.85 0.77,-1.7 -0.08,-0.73 -1.79,-1.02 -0.17,-1.59 1.29,-3.45 1.13,-0.92 0.55,-1.86 0.9,-1.13 0.4,-1.96 1.05,-0.2 0.69,-1.16 1.96,-1.11 0.63,-0.66 0.65,-1.47 3.07,-3.37 2.61,-2.12 4.19,-2.77 2.81,-2.26 3.3,-3.81 2.39,-3.13 2.41,-4.11 1.73,-3.59 1.35,-3.15 0.79,-3.06 0.59,-1.02 -0.01,-1.49 0.26,-1.66 z m -2.57,74.53 0.73,1.35 -0.28,1.39 -0.5,0.85 -0.95,-1.7 -0.53,0.86 0.54,2.15 -0.25,1.23 -0.77,0.67 -0.18,2.48 -1.1,3.43 -1.38,4.08 -1.73,5.67 -1.07,4.21 -1.27,3.55 -2.28,0.73 -2.45,1.31 -1.61,-0.79 -2.23,-1.1 -0.77,-1.62 -0.19,-2.71 -0.99,-2.42 -0.26,-2.17 0.5,-2.16 1.29,-0.52 0.01,-0.99 1.34,-2.26 0.25,-1.89 -0.65,-1.4 -0.53,-1.85 -0.22,-2.7 0.98,-1.63 0.38,-1.84 1.4,-0.11 1.56,-0.59 1.04,-0.52 1.23,-0.04 1.6,-1.65 2.31,-1.78 0.84,-1.45 -0.38,-1.23 1.19,0.34 1.55,-1.99 0.05,-1.72 0.93,-1.28 0.98,1.22 0.74,1.21 0.69,1.89 0.44,3.49 z"
       inkscape:connector-curvature="0"
       style="fill:#cccccc;fill-opacity:1;stroke:#ffffff;stroke-width:0.5;stroke-opacity:1" />
  </g>
</svg>
